<svg xmlns="http://www.w3.org/2000/svg" width="166.505" height="192.263" viewBox="0 0 166.505 192.263"><g transform="translate(-1384.911 -1478)"><path d="M255.244,223.675l-83.252,48.066L88.739,223.675V127.543l83.252-48.066,83.252,48.066Z" transform="translate(1296.172 1398.522)" fill="#eff5fc"/><g transform="translate(1419.837 1534.18)"><path d="M87.828,13.239,77.374,3.269A2.121,2.121,0,0,0,75.8,2.493H33.919A2.221,2.221,0,0,0,31.7,4.711v6.812l-14.76,2.53a2.186,2.186,0,0,0-1.774,2.522l.749,4.368c-4.8,1.614-9.723,3.279-14.478,4.987A2.2,2.2,0,0,0,.126,28.72L9.584,55.013a1.3,1.3,0,0,0,2.441-.878L2.707,28.23c4.48-1.6,9.119-3.174,13.653-4.7l4.457,25.987,5.129,29.928a2.2,2.2,0,0,0,2.522,1.779L42.36,78.84,53.215,76.98,36.889,82.848,24.014,87.477l-10-27.811a1.3,1.3,0,1,0-2.441.878L21.715,88.75a2.191,2.191,0,0,0,2.053,1.438,2.146,2.146,0,0,0,.738-.131l13.261-4.768L67.878,74.466l5.753-.986H86.339a2.223,2.223,0,0,0,2.218-2.223V14.7a1.866,1.866,0,0,0-.729-1.462Zm-3.437.307H77.739c-.311,0-1.038.007-1.223-.176a.73.73,0,0,1-.092-.447l-.015-6.99Zm1.571,57.34H34.295V45.6a1.3,1.3,0,0,0-2.594,0V71.257a2.223,2.223,0,0,0,2.218,2.223H58.274l-16.353,2.8L28.433,78.6,23.374,49.079l-5.581-32.54L31.7,14.155V39.585a1.3,1.3,0,1,0,2.594,0V5.087H73.812l.017,7.84a3.089,3.089,0,0,0,.859,2.285,3.967,3.967,0,0,0,2.882.93h8.392Z" transform="translate(0)" fill="#004080"/><path d="M234.43,112.746a1.3,1.3,0,0,0,1.3,1.3h37.09a1.3,1.3,0,1,0,0-2.594h-37.09A1.3,1.3,0,0,0,234.43,112.746Z" transform="translate(-193.882 -90.111)" fill="#004080"/><path d="M272.817,164.731h-37.09a1.3,1.3,0,0,0,0,2.594h37.09a1.3,1.3,0,1,0,0-2.594Z" transform="translate(-193.882 -134.177)" fill="#004080"/><path d="M272.817,218.013h-37.09a1.3,1.3,0,1,0,0,2.594h37.09a1.3,1.3,0,1,0,0-2.594Z" transform="translate(-193.882 -178.243)" fill="#004080"/><path d="M272.817,271.3h-37.09a1.3,1.3,0,0,0,0,2.594h37.09a1.3,1.3,0,1,0,0-2.594Z" transform="translate(-193.882 -222.309)" fill="#004080"/><path d="M272.817,324.578h-37.09a1.3,1.3,0,1,0,0,2.594h37.09a1.3,1.3,0,1,0,0-2.594Z" transform="translate(-193.882 -266.376)" fill="#004080"/></g></g></svg>