<svg xmlns="http://www.w3.org/2000/svg" width="166.505" height="192.263" viewBox="0 0 166.505 192.263"><g transform="translate(-867.716 -1478)"><path d="M255.244,223.675l-83.252,48.066L88.739,223.675V127.543l83.252-48.066,83.252,48.066Z" transform="translate(778.977 1398.522)" fill="#eff5fc"/><g transform="translate(866.727 1534.591)"><g transform="translate(50.012 0)"><path d="M161.222,119.993a1.246,1.246,0,1,0,0-2.493H144.775a1.246,1.246,0,1,0,0,2.493Z" transform="translate(-127.989 -97.975)" fill="#004080"/><path d="M109.529,169.746a1.246,1.246,0,0,0,1.246,1.246h27.746a1.246,1.246,0,0,0,0-2.493H110.775a1.246,1.246,0,0,0-1.246,1.246Z" transform="translate(-99.639 -140.5)" fill="#004080"/><path d="M110.775,205.993h27.746a1.246,1.246,0,0,0,0-2.493H110.775a1.246,1.246,0,1,0,0,2.493Z" transform="translate(-99.639 -169.684)" fill="#004080"/><path d="M110.775,275.993h9.467a1.246,1.246,0,1,0,0-2.493h-9.467a1.246,1.246,0,1,0,0,2.493Z" transform="translate(-99.639 -228.052)" fill="#004080"/><path d="M117.225,55.582a1.246,1.246,0,0,0,1.246-1.246v-5.6a2.184,2.184,0,0,0-1.04-1.868l-5.994-3.712V1.745A1.747,1.747,0,0,0,109.692,0H63.163a1.747,1.747,0,0,0-1.745,1.745V5.7H57.46a1.747,1.747,0,0,0-1.745,1.745v3.958H51.757a1.747,1.747,0,0,0-1.745,1.745V76.79a1.747,1.747,0,0,0,1.745,1.745h9.221a1.246,1.246,0,1,0,0-2.493H52.5V13.9H97.538V36.826l-7.576,4.692a1.244,1.244,0,0,0-1.068-1.886H61.148a1.246,1.246,0,0,0,0,2.493H88.894c.033,0,.065,0,.1,0l-5.374,3.328H74.6a1.246,1.246,0,0,0,0,2.493h5.831a2.2,2.2,0,0,0-.148.794v2.529H61.148a1.246,1.246,0,1,0,0,2.493H80.286V57.08H61.148a1.246,1.246,0,0,0,0,2.493H80.286v2.938c0,.129,0,.257.005.386H61.148a1.246,1.246,0,1,0,0,2.493H80.562A15.106,15.106,0,0,0,85.6,74.027l2.364,2.015H66.793a1.246,1.246,0,0,0,0,2.493h24.1l7.062,6.018a2.188,2.188,0,0,0,2.85,0l12.351-10.525a15.109,15.109,0,0,0,5.317-11.517V60.152a1.246,1.246,0,0,0-2.493,0v2.359a12.62,12.62,0,0,1-4.441,9.619L99.379,82.492,87.22,72.13a12.62,12.62,0,0,1-4.441-9.619V48.9l16.6-10.282,16.6,10.282v5.436a1.246,1.246,0,0,0,1.246,1.246ZM100.031,36.172V13.151a1.747,1.747,0,0,0-1.745-1.745H58.208V8.2h45.034V16.95a1.246,1.246,0,0,0,2.493,0v-9.5A1.747,1.747,0,0,0,103.989,5.7H63.911V2.493h45.034V41.611l-3.21-1.989V22.766a1.246,1.246,0,0,0-2.493,0V38.079L100.535,36.4A2.216,2.216,0,0,0,100.031,36.172Z" transform="translate(-50.012 0)" fill="#004080"/><path d="M278.394,293.446A11.416,11.416,0,1,0,289.81,282.03a11.429,11.429,0,0,0-11.416,11.416Zm20.339,0a8.923,8.923,0,1,1-8.923-8.923A8.934,8.934,0,0,1,298.733,293.446Z" transform="translate(-240.443 -235.164)" fill="#004080"/><path d="M321.015,333.2a1.246,1.246,0,0,0-1.762,1.762l3.007,3.007a1.246,1.246,0,0,0,1.763,0l4.661-4.661a1.246,1.246,0,0,0-1.763-1.762l-3.78,3.78Z" transform="translate(-274.208 -276.145)" fill="#004080"/></g></g></g></svg>