<svg xmlns="http://www.w3.org/2000/svg" width="166.505" height="192.263" viewBox="0 0 166.505 192.263"><g transform="translate(-350.521 -1478)"><path d="M255.244,223.675l-83.252,48.066L88.739,223.675V127.543l83.252-48.066,83.252,48.066Z" transform="translate(261.781 1398.522)" fill="#eff5fc"/><g transform="translate(391.621 1506.675)"><g transform="translate(0 22.964)"><path d="M103,132.829h25.909a1.236,1.236,0,1,0,0-2.472H103a1.236,1.236,0,1,0,0,2.472Z" transform="translate(-85.001 -112.662)" fill="#004080"/><path d="M1.236,170.987a1.236,1.236,0,0,0,1.236-1.236v-26.14h37.3a1.236,1.236,0,1,0,0-2.471H2.472v-2.18A6.139,6.139,0,0,1,8.6,132.829h4.135a1.236,1.236,0,1,0,0-2.472H8.6a8.613,8.613,0,0,0-8.6,8.6v30.791a1.236,1.236,0,0,0,1.236,1.236Z" transform="translate(0 -112.662)" fill="#004080"/><path d="M79.5,307.366a1.236,1.236,0,0,0-1.236,1.236V328.64a6.138,6.138,0,0,1-6.132,6.132H8.6a6.138,6.138,0,0,1-6.132-6.132v-5.778a1.236,1.236,0,1,0-2.472,0v5.778a8.613,8.613,0,0,0,8.6,8.6H72.129a8.613,8.613,0,0,0,8.6-8.6V308.6A1.236,1.236,0,0,0,79.5,307.366Z" transform="translate(0 -260.506)" fill="#004080"/><path d="M272.08,53.315a19.8,19.8,0,0,0,19.454,19.4l.283,0a19.746,19.746,0,0,0,18.606-26.328,1.236,1.236,0,0,0-2.33.825,17.268,17.268,0,1,1-27.856-7.043.531.531,0,0,1,.358-.135h22.439a.532.532,0,0,1,.358.135,17.419,17.419,0,0,1,2.375,2.637,1.236,1.236,0,1,0,2-1.458,19.881,19.881,0,0,0-2.713-3.012,3,3,0,0,0-2.016-.774h-.421v-3.8a10.8,10.8,0,0,0-21.6,0v3.8h-.421a3,3,0,0,0-2.015.774,19.752,19.752,0,0,0-6.5,14.974ZM295.2,37.567h-6.768v-3.8a3.384,3.384,0,0,1,6.768,0v3.8Zm-11.711-3.8a8.327,8.327,0,0,1,16.654,0v3.8h-2.471v-3.8a5.856,5.856,0,0,0-11.711,0v3.8h-2.471Z" transform="translate(-227.248 -22.964)" fill="#004080"/><path d="M41.6,166.574a1.236,1.236,0,1,0,0,2.471h1.032a1.236,1.236,0,1,0,0-2.471Z" transform="translate(-33.714 -142.912)" fill="#004080"/><path d="M79.523,167.81a1.236,1.236,0,0,0,1.236,1.236h1.032a1.236,1.236,0,1,0,0-2.471H80.759A1.236,1.236,0,0,0,79.523,167.81Z" transform="translate(-66.42 -142.912)" fill="#004080"/><path d="M119.918,166.574a1.236,1.236,0,1,0,0,2.471h1.032a1.236,1.236,0,1,0,0-2.471Z" transform="translate(-99.127 -142.912)" fill="#004080"/><path d="M159.076,166.574a1.236,1.236,0,1,0,0,2.471H171.6a1.236,1.236,0,1,0,0-2.471Z" transform="translate(-131.833 -142.912)" fill="#004080"/><path d="M359.717,175.844a2.521,2.521,0,0,0,2.054,1.042h5.661a2.546,2.546,0,0,0,2.427-3.314l-1.1-3.467a5.344,5.344,0,1,0-8.32,0l-1.1,3.467A2.522,2.522,0,0,0,359.717,175.844Zm1.983-1.527,1.12-3.536a2.348,2.348,0,0,0-.437-2.207,2.872,2.872,0,0,1,2.218-4.7q.093,0,.186.006a2.9,2.9,0,0,1,2.681,2.691,2.869,2.869,0,0,1-.65,2,2.342,2.342,0,0,0-.435,2.2l1.12,3.536a.075.075,0,0,1-.071.1h-5.661a.075.075,0,0,1-.071-.1Z" transform="translate(-300.034 -138.596)" fill="#004080"/><path d="M63.517,260.449a1.236,1.236,0,1,0-2.472,0v6.929a1.236,1.236,0,0,0,2.472,0Z" transform="translate(-50.987 -220.287)" fill="#004080"/><path d="M194.834,260.449a1.236,1.236,0,1,0-2.472,0v6.929a1.236,1.236,0,0,0,2.472,0Z" transform="translate(-160.667 -220.287)" fill="#004080"/><path d="M118.314,263.118a3.9,3.9,0,0,0-7.81,0v1.591a3.9,3.9,0,0,0,7.81,0Zm-2.472,1.591a1.433,1.433,0,0,1-2.867,0v-1.591a1.433,1.433,0,0,1,2.867,0Z" transform="translate(-92.297 -220.287)" fill="#004080"/><path d="M62.281,364.677a1.236,1.236,0,0,0-1.236,1.236v6.929a1.236,1.236,0,1,0,2.472,0v-6.929A1.236,1.236,0,0,0,62.281,364.677Z" transform="translate(-50.987 -308.374)" fill="#004080"/><path d="M193.6,364.677a1.236,1.236,0,0,0-1.236,1.236v6.929a1.236,1.236,0,1,0,2.472,0v-6.929A1.236,1.236,0,0,0,193.6,364.677Z" transform="translate(-160.667 -308.374)" fill="#004080"/><path d="M114.41,364.677a3.909,3.909,0,0,0-3.9,3.9v1.591a3.9,3.9,0,0,0,7.81,0v-1.591A3.909,3.909,0,0,0,114.41,364.677Zm1.433,5.5a1.433,1.433,0,0,1-2.867,0v-1.591a1.433,1.433,0,1,1,2.867,0Z" transform="translate(-92.297 -308.374)" fill="#004080"/><path d="M319.347,365.913v6.929a1.236,1.236,0,1,0,2.472,0v-6.929a1.236,1.236,0,0,0-2.472,0Z" transform="translate(-266.729 -308.374)" fill="#004080"/><path d="M237.489,368.581v1.591a3.9,3.9,0,0,0,7.81,0v-1.591a3.9,3.9,0,0,0-7.81,0Zm5.338,0v1.591a1.433,1.433,0,0,1-2.867,0v-1.591a1.433,1.433,0,1,1,2.867,0Z" transform="translate(-198.358 -308.373)" fill="#004080"/><path d="M368.807,368.581v1.591a3.9,3.9,0,0,0,7.81,0v-1.591a3.9,3.9,0,0,0-7.81,0Zm5.338,0v1.591a1.433,1.433,0,0,1-2.867,0v-1.591a1.433,1.433,0,1,1,2.867,0Z" transform="translate(-308.04 -308.373)" fill="#004080"/></g></g></g></svg>