<svg xmlns="http://www.w3.org/2000/svg" width="126.831" height="146.452" viewBox="0 0 126.831 146.452"><g transform="translate(-804.958 -5871.138)"><path d="M215.571,189.317,152.155,225.93,88.739,189.317V116.091l63.416-36.613,63.416,36.613Z" transform="translate(716.219 5791.66)" fill="#eff5fc"/><g transform="translate(826.799 5795.964)"><g transform="translate(0 128)"><path d="M182.88,128H140.638a6.834,6.834,0,0,0-6.655,5.4l-5.847,27.777a6.319,6.319,0,0,0,6.182,7.623H176.56a6.834,6.834,0,0,0,6.655-5.4l5.847-27.777A6.319,6.319,0,0,0,182.88,128Zm-42.242,3.4h42.19c-5.905,4.1-18.892,13.11-23.744,16.434-.657.45-2.012.89-2.779.164-3.491-3.283-12.7-12.1-17.047-16.264A3.32,3.32,0,0,1,140.638,131.4Zm45.1,3.52L179.888,162.7a3.418,3.418,0,0,1-3.328,2.7H134.318a2.916,2.916,0,0,1-2.855-3.52l5.764-27.383c4.482,4.293,13.344,12.775,16.746,15.977a4.931,4.931,0,0,0,3.441,1.356,6.4,6.4,0,0,0,3.593-1.19c5.114-3.5,19.266-13.325,24.643-17.059a2.806,2.806,0,0,1,.149.738A2.925,2.925,0,0,1,185.735,134.919Z" transform="translate(-107.601 -128)" fill="#00336a"/><path d="M15.3,341.333H1.7a1.7,1.7,0,0,0,0,3.4H15.3a1.7,1.7,0,0,0,0-3.4Z" transform="translate(0 -307.334)" fill="#00336a"/><path d="M17,277.333H1.7a1.7,1.7,0,0,0,0,3.4H17a1.7,1.7,0,0,0,0-3.4Z" transform="translate(0 -253.534)" fill="#00336a"/><path d="M18.7,213.333H1.7a1.7,1.7,0,0,0,0,3.4h17a1.7,1.7,0,1,0,0-3.4Z" transform="translate(0 -199.733)" fill="#00336a"/><path d="M1.7,152.733H20.4a1.7,1.7,0,0,0,0-3.4H1.7a1.7,1.7,0,0,0,0,3.4Z" transform="translate(0 -145.933)" fill="#00336a"/></g></g></g></svg>