<svg xmlns="http://www.w3.org/2000/svg" width="126.831" height="146.452" viewBox="0 0 126.831 146.452"><g transform="translate(-805.07 -5517)"><path d="M215.571,189.317,152.155,225.93,88.739,189.317V116.091l63.416-36.613,63.416,36.613Z" transform="translate(716.331 5437.522)" fill="#eff5fc"/><g transform="translate(836.834 5567.531)"><g transform="translate(0 0)"><path d="M57.512,51.15H6.687A6.7,6.7,0,0,1,0,44.462V9.687A6.7,6.7,0,0,1,6.687,3H57.512A6.7,6.7,0,0,1,64.2,9.687V44.462A6.7,6.7,0,0,1,57.512,51.15ZM6.687,5.675A4.017,4.017,0,0,0,2.675,9.687V44.462a4.017,4.017,0,0,0,4.012,4.012H57.512a4.017,4.017,0,0,0,4.012-4.012V9.687a4.017,4.017,0,0,0-4.012-4.012Z" transform="translate(0 -3)" fill="#00336a"/></g><g transform="translate(13.375 10.7)"><path d="M11.687,20.375a6.687,6.687,0,1,1,6.687-6.687A6.7,6.7,0,0,1,11.687,20.375Zm0-10.7A4.012,4.012,0,1,0,15.7,13.687,4.017,4.017,0,0,0,11.687,9.675Z" transform="translate(-5 -7)" fill="#00336a"/></g><g transform="translate(8.025 26.75)"><path d="M25.737,23.7A1.338,1.338,0,0,1,24.4,22.362V19.687a4.017,4.017,0,0,0-4.012-4.012H9.687a4.017,4.017,0,0,0-4.012,4.012v2.675a1.337,1.337,0,1,1-2.675,0V19.687A6.7,6.7,0,0,1,9.687,13h10.7a6.7,6.7,0,0,1,6.687,6.687v2.675A1.338,1.338,0,0,1,25.737,23.7Z" transform="translate(-3 -13)" fill="#00336a"/></g><g transform="translate(37.45 13.375)"><path d="M31.387,10.675H15.337a1.337,1.337,0,1,1,0-2.675h16.05a1.337,1.337,0,0,1,0,2.675Z" transform="translate(-14 -8)" fill="#00336a"/></g><g transform="translate(37.45 24.075)"><path d="M31.387,14.675H15.337a1.337,1.337,0,1,1,0-2.675h16.05a1.337,1.337,0,0,1,0,2.675Z" transform="translate(-14 -12)" fill="#00336a"/></g><g transform="translate(37.45 34.775)"><path d="M31.387,18.675H15.337a1.337,1.337,0,1,1,0-2.675h16.05a1.337,1.337,0,0,1,0,2.675Z" transform="translate(-14 -16)" fill="#00336a"/></g></g></g></svg>