<svg id="Calque_1" data-name="Calque 1" xmlns="http://www.w3.org/2000/svg" xmlns:xlink="http://www.w3.org/1999/xlink" viewBox="0 0 413.24 128.26"><defs><style>.cls-1{fill:#151f36;}.cls-2{fill:url(#Dégradé_sans_nom_55);}.cls-3{fill:url(#Dégradé_sans_nom_55-2);}</style><linearGradient id="Dégradé_sans_nom_55" x1="438.25" y1="325.12" x2="468.45" y2="272.82" gradientUnits="userSpaceOnUse"><stop offset="0" stop-color="#fadc6e"/><stop offset="0.2" stop-color="#f7bc4e"/><stop offset="0.4" stop-color="#f6a333"/><stop offset="0.61" stop-color="#ec8b1b"/><stop offset="0.81" stop-color="#e3811a"/><stop offset="0.99" stop-color="#b66516"/></linearGradient><linearGradient id="Dégradé_sans_nom_55-2" x1="393.07" y1="358.73" x2="423.27" y2="306.42" xlink:href="#Dégradé_sans_nom_55"/></defs><title>Logo typo bleu</title><path class="cls-1" d="M374.06,332.88c0,18.47-13.39,32.73-29.63,32.73-8.3,0-14.38-2.85-18.47-7.56v5.83h-18.6V277.09H326v30.62c4.09-4.71,10.17-7.56,18.47-7.56C360.67,300.15,374.06,314.41,374.06,332.88Zm-18.59,0c0-9.3-6.2-15.13-14.76-15.13S326,323.58,326,332.88,332.16,348,340.71,348,355.47,342.18,355.47,332.88Z" transform="translate(-70.33 -262.73)"/><path class="cls-1" d="M134.67,347.61a15.29,15.29,0,0,0,11.24-4.45l14,8.08c-5.73,8-14.4,12.06-25.52,12.06-20,0-32.42-13.46-32.42-30.91s12.64-30.9,31.14-30.9c17.09,0,29.73,13.23,29.73,30.9a34,34,0,0,1-.7,7H120.62C122.84,345.5,128.23,347.61,134.67,347.61Zm10.77-21.3c-1.88-6.79-7.14-9.25-12.41-9.25-6.67,0-11.12,3.28-12.76,9.25Z" transform="translate(-70.33 -262.73)"/><path class="cls-1" d="M233.39,301.49v59.87c0,20.83-16.24,29.63-32.73,29.63-12.9,0-23.68-4.84-29.39-15l15.87-9.18c2.36,4.34,6,7.81,14.14,7.81,8.68,0,14-4.46,14-13.26v-5.71c-4.09,5.09-10,8.06-18.1,8.06-17.61,0-30.5-14.38-30.5-31.49s12.89-31.49,30.5-31.49c8.06,0,14,3,18.1,8.06v-7.3Zm-18.1,30.73c0-8.55-6.2-14.38-15-14.38s-15,5.83-15,14.38,6.2,14.38,15,14.38S215.29,340.78,215.29,332.22Z" transform="translate(-70.33 -262.73)"/><path class="cls-1" d="M303.46,360.59a20.12,20.12,0,0,1-6.07,2.5,29.58,29.58,0,0,1-6.9.83,30.62,30.62,0,0,1-10.23-1.49,14.64,14.64,0,0,1-6.67-4.58A19.62,19.62,0,0,1,270,350a49,49,0,0,1-1.13-11.19v-30.1h-9V301a32,32,0,0,0,13.5-10.23q5.19-6.78,7.09-17.61H286v20.11h17.37v15.47H286V340a12,12,0,0,0,.65,4.29,6.63,6.63,0,0,0,1.73,2.61,5.64,5.64,0,0,0,2.44,1.31,11.37,11.37,0,0,0,2.91.36,20.9,20.9,0,0,0,4.88-.71,12.25,12.25,0,0,0,4.88-2.38Z" transform="translate(-70.33 -262.73)"/><rect class="cls-1" x="166.96" y="38.92" width="18.6" height="61.99"/><circle class="cls-1" cx="176.26" cy="23.66" r="9.3"/><path class="cls-2" d="M464.49,308.82c-1.66,2.85-4.83,5.89-10.76,5.89-11.15,0-12.53-10.74-12.53-10.74h42.37V285.75a7.27,7.27,0,0,0-3.63-6.29l-8-4.63h0l-15-8.66a7.26,7.26,0,0,0-7.27,0l-8,4.62.09-.08-15,8.66a7.27,7.27,0,0,0-3.63,6.3V312.2a7.27,7.27,0,0,0,3.63,6.3l8,4.61h0l15,8.66a7.31,7.31,0,0,0,7.27,0l7.91-4.57,15-8.66a7.29,7.29,0,0,0,3.63-6.3v-3.42Zm-10.84-25.88A12.84,12.84,0,0,1,466,292.28H441.29A12.85,12.85,0,0,1,453.65,282.94Z" transform="translate(-70.33 -262.73)"/><path class="cls-3" d="M419.31,342.43c-1.67,2.85-4.83,5.89-10.77,5.89-11.14,0-12.52-10.74-12.52-10.74h42.36V319.36a7.27,7.27,0,0,0-3.63-6.3l-8-4.63,0,0-15-8.66a7.24,7.24,0,0,0-7.26,0l-8,4.62.1-.08-15,8.66a7.26,7.26,0,0,0-3.63,6.29v26.53a7.24,7.24,0,0,0,3.63,6.29l8,4.61h0l15,8.66a7.24,7.24,0,0,0,7.26,0l7.91-4.57,15-8.66a7.24,7.24,0,0,0,3.63-6.29v-3.42Zm-10.84-25.89a12.86,12.86,0,0,1,12.36,9.35H396.11A12.85,12.85,0,0,1,408.47,316.54Z" transform="translate(-70.33 -262.73)"/><path class="cls-1" d="M245.67,380.92H237.2V368.41h2.47v10.17h6Z" transform="translate(-70.33 -262.73)"/><path class="cls-1" d="M247.78,370.26a2.34,2.34,0,0,1-.1.71,1.91,1.91,0,0,1-.32.6,1.49,1.49,0,0,1-.54.41,1.72,1.72,0,0,1-.74.15,1.55,1.55,0,0,1-.31,0l-.27-.06v-.17a1.14,1.14,0,0,0,.73-.42,1.23,1.23,0,0,0,.29-.8,1.37,1.37,0,0,0,0-.19.9.9,0,0,0,0-.19h-1v-2.33h2.33Z" transform="translate(-70.33 -262.73)"/><path class="cls-1" d="M257.23,380.92H255v-5.41a2.28,2.28,0,0,0-.15-.86,1.88,1.88,0,0,0-.39-.61,1.62,1.62,0,0,0-.57-.36,1.92,1.92,0,0,0-.67-.11,3.25,3.25,0,0,0-1,.15,4.23,4.23,0,0,0-.91.44v6.76H249v-13h2.25l0,4.45a3.46,3.46,0,0,1,1.15-.58,4.89,4.89,0,0,1,1.27-.19,3.87,3.87,0,0,1,1.33.23,3.05,3.05,0,0,1,1.11.69,3.19,3.19,0,0,1,.77,1.16,4.31,4.31,0,0,1,.29,1.65Z" transform="translate(-70.33 -262.73)"/><path class="cls-1" d="M268.3,376.38a3.67,3.67,0,0,1,0,.46c0,.15,0,.32,0,.48H261a3,3,0,0,0,.36.75,2.65,2.65,0,0,0,.55.61,2.81,2.81,0,0,0,.74.41,3,3,0,0,0,.92.14,3.73,3.73,0,0,0,1.22-.21,3,3,0,0,0,1-.57l1.43,1.43a5.89,5.89,0,0,1-3.75,1.28,4.81,4.81,0,0,1-1.9-.38,4.91,4.91,0,0,1-1.53-1,4.77,4.77,0,0,1-1-1.51,4.86,4.86,0,0,1,0-3.72,4.94,4.94,0,0,1,1-1.51,5.3,5.3,0,0,1,1.54-1,4.89,4.89,0,0,1,1.88-.37,5,5,0,0,1,1.83.35,5.1,5.1,0,0,1,1.55,1,4.62,4.62,0,0,1,1.07,1.5A4.76,4.76,0,0,1,268.3,376.38Zm-2.37-.87a2.63,2.63,0,0,0-.95-1.39,2.43,2.43,0,0,0-1.54-.52,2.37,2.37,0,0,0-1.51.52,2.68,2.68,0,0,0-.95,1.39Zm0-7.79-2.26,3H262l1.41-3Z" transform="translate(-70.33 -262.73)"/><path class="cls-1" d="M276.2,372.81,275,374.72a3.92,3.92,0,0,0-.72-.63,1.45,1.45,0,0,0-.81-.27,1.33,1.33,0,0,0-.48.1,1.48,1.48,0,0,0-.48.33,2,2,0,0,0-.38.62,2.42,2.42,0,0,0-.16.95v5.1H269.7v-9.05H272v1a3.3,3.3,0,0,1,.9-.89,2,2,0,0,1,1.1-.31,2.4,2.4,0,0,1,1.17.32A4.45,4.45,0,0,1,276.2,372.81Z" transform="translate(-70.33 -262.73)"/><path class="cls-1" d="M279.35,370.29H277v-2.35h2.35Zm0,10.63H277v-9.06h2.29Z" transform="translate(-70.33 -262.73)"/><path class="cls-1" d="M286.43,380.72a2.5,2.5,0,0,1-.8.33,4.28,4.28,0,0,1-2.26-.09,2,2,0,0,1-.87-.6,2.53,2.53,0,0,1-.48-1,6.4,6.4,0,0,1-.15-1.47v-4h-1.19v-1a4.29,4.29,0,0,0,1.78-1.35,5.34,5.34,0,0,0,.93-2.32h.73v2.65h2.29v2h-2.29V378a1.79,1.79,0,0,0,.09.57,1,1,0,0,0,.23.34.76.76,0,0,0,.32.17,1.58,1.58,0,0,0,.38.05,2.72,2.72,0,0,0,.64-.09,1.65,1.65,0,0,0,.65-.32Z" transform="translate(-70.33 -262.73)"/><path class="cls-1" d="M295.1,380.92h-2.25v-.48a3.72,3.72,0,0,1-1.26.56,5.7,5.7,0,0,1-1.37.16A3.37,3.37,0,0,1,289,381a2.57,2.57,0,0,1-.93-.56,2.61,2.61,0,0,1-.6-.87,2.82,2.82,0,0,1-.21-1.11,2.64,2.64,0,0,1,.33-1.34,2.88,2.88,0,0,1,.92-.95,4.3,4.3,0,0,1,1.36-.58,7.28,7.28,0,0,1,1.66-.18h1.3a1.6,1.6,0,0,0-.52-1.27,2.09,2.09,0,0,0-1.48-.47,3.05,3.05,0,0,0-1,.17,2.8,2.8,0,0,0-1,.63l-1.33-1.35a5.31,5.31,0,0,1,1.67-1.07,5.44,5.44,0,0,1,1.95-.37,4.36,4.36,0,0,1,1.67.3,3.44,3.44,0,0,1,1.19.76,3.38,3.38,0,0,1,.83,1.34,6.11,6.11,0,0,1,.24,1.87Zm-2.25-2.25V377h-1a6,6,0,0,0-.88.07,2.35,2.35,0,0,0-.72.21,1.37,1.37,0,0,0-.49.38.92.92,0,0,0-.18.57.94.94,0,0,0,.37.76,1.46,1.46,0,0,0,.95.3,3.11,3.11,0,0,0,1-.16A4.61,4.61,0,0,0,292.85,378.67Z" transform="translate(-70.33 -262.73)"/><path class="cls-1" d="M305.15,373.66h-.95a3.25,3.25,0,0,1,.36,1.5,3.18,3.18,0,0,1-.23,1.18,3.48,3.48,0,0,1-.65,1.05,3.89,3.89,0,0,1-1,.8,4.17,4.17,0,0,1-1.36.43,2.16,2.16,0,0,0-.77.25c-.18.1-.26.22-.26.32s.08.21.26.31a2.09,2.09,0,0,0,.77.19,5.24,5.24,0,0,1,2.72.87,2.29,2.29,0,0,1,1,1.92,2.19,2.19,0,0,1-.3,1.12,2.57,2.57,0,0,1-.85.89,3.86,3.86,0,0,1-1.33.58,6.69,6.69,0,0,1-1.74.21,7,7,0,0,1-1.78-.21,4.36,4.36,0,0,1-1.35-.57,2.54,2.54,0,0,1-.85-.88,2.26,2.26,0,0,1-.3-1.14,2.39,2.39,0,0,1,.53-1.58,3.39,3.39,0,0,1,1.75-.95,1.12,1.12,0,0,1-.54-.38.78.78,0,0,1-.15-.49.88.88,0,0,1,.22-.48,1.22,1.22,0,0,1,.55-.35,4.06,4.06,0,0,1-.78-.49,4,4,0,0,1-.67-.69,3,3,0,0,1-.47-.87,3,3,0,0,1-.17-1,3.1,3.1,0,0,1,.31-1.38,3.66,3.66,0,0,1,.84-1.11,4.22,4.22,0,0,1,1.24-.76,4.14,4.14,0,0,1,1.49-.27,4.31,4.31,0,0,1,1.42.23h3.1Zm-2.42,8.82a.83.83,0,0,0-.56-.8,3.41,3.41,0,0,0-1.42-.25,3.36,3.36,0,0,0-1.48.26.84.84,0,0,0,0,1.58,4.1,4.1,0,0,0,2.9,0A.84.84,0,0,0,302.73,382.48Zm-.43-7.32a1.53,1.53,0,0,0-.13-.64,1.9,1.9,0,0,0-.35-.52,1.61,1.61,0,0,0-.53-.36,1.57,1.57,0,0,0-.64-.14,1.53,1.53,0,0,0-.64.14,1.57,1.57,0,0,0-.52.36,1.73,1.73,0,0,0-.36.52,1.53,1.53,0,0,0-.13.64,1.57,1.57,0,0,0,.13.65,1.66,1.66,0,0,0,.36.53,1.43,1.43,0,0,0,.52.36,1.53,1.53,0,0,0,.64.14,1.57,1.57,0,0,0,.64-.14,1.47,1.47,0,0,0,.53-.36,1.81,1.81,0,0,0,.35-.53A1.57,1.57,0,0,0,302.3,375.16Z" transform="translate(-70.33 -262.73)"/><path class="cls-1" d="M315.28,376.38c0,.15,0,.3,0,.46l-.06.48H308a3,3,0,0,0,.35.75,2.69,2.69,0,0,0,.56.61,2.66,2.66,0,0,0,.74.41,3,3,0,0,0,.92.14,3.73,3.73,0,0,0,1.22-.21,3,3,0,0,0,1-.57l1.42,1.43a6.16,6.16,0,0,1-1.84,1,6.24,6.24,0,0,1-1.9.29,4.81,4.81,0,0,1-1.9-.38,5,5,0,0,1-1.54-1,4.91,4.91,0,0,1-1-1.51,4.74,4.74,0,0,1,0-3.72,4.77,4.77,0,0,1,1-1.51,5.39,5.39,0,0,1,1.53-1,5,5,0,0,1,3.71,0,5,5,0,0,1,1.56,1,4.74,4.74,0,0,1,1.06,1.5A4.59,4.59,0,0,1,315.28,376.38Zm-2.36-.87a2.68,2.68,0,0,0-.95-1.39,2.45,2.45,0,0,0-1.54-.52,2.41,2.41,0,0,0-1.52.52,2.73,2.73,0,0,0-.94,1.39Z" transform="translate(-70.33 -262.73)"/><path class="cls-1" d="M329.86,380.92H327.6v-5.4a2.44,2.44,0,0,0-.14-.85,1.82,1.82,0,0,0-.41-.61,1.54,1.54,0,0,0-.57-.36,1.93,1.93,0,0,0-.67-.12,3,3,0,0,0-1,.18,2.58,2.58,0,0,0-.91.57v6.59h-2.26v-9.05h2.26v.68a2.52,2.52,0,0,1,.5-.38,5,5,0,0,1,.62-.29,3.79,3.79,0,0,1,.66-.18,3.66,3.66,0,0,1,.65-.06,3.89,3.89,0,0,1,1.32.22,3.23,3.23,0,0,1,1.13.67,3.35,3.35,0,0,1,.79,1.18,4.41,4.41,0,0,1,.3,1.7Z" transform="translate(-70.33 -262.73)"/><path class="cls-1" d="M339.6,380.92h-2.25v-.69a2.28,2.28,0,0,1-.52.39,3.78,3.78,0,0,1-.61.28,3.73,3.73,0,0,1-1.29.24,3.89,3.89,0,0,1-1.32-.22,3,3,0,0,1-1.12-.67,3.33,3.33,0,0,1-.78-1.17,4.64,4.64,0,0,1-.28-1.71v-5.5h2.25v5.39a2.19,2.19,0,0,0,.15.85,1.78,1.78,0,0,0,.39.61,1.44,1.44,0,0,0,.57.37,2.08,2.08,0,0,0,.66.11,2.7,2.7,0,0,0,1.9-.75v-6.58h2.25Z" transform="translate(-70.33 -262.73)"/><path class="cls-1" d="M354.88,380.92h-2.26v-5.4a2.05,2.05,0,0,0-.46-1.45,1.49,1.49,0,0,0-1.13-.49,3.14,3.14,0,0,0-1,.16,3.07,3.07,0,0,0-.9.55,5.08,5.08,0,0,1,.14,1.23v5.4H347v-5.4a2.06,2.06,0,0,0-.47-1.45,1.47,1.47,0,0,0-1.12-.49,2.13,2.13,0,0,0-.9.18,3.21,3.21,0,0,0-.82.57v6.59h-2.25v-9.05h2.25v.68a3.62,3.62,0,0,1,1-.66,2.83,2.83,0,0,1,1.17-.25,3.2,3.2,0,0,1,1.32.3,3.48,3.48,0,0,1,1.17.86,4.44,4.44,0,0,1,1.42-.89,4.54,4.54,0,0,1,1.59-.27,4.23,4.23,0,0,1,1.34.21,2.89,2.89,0,0,1,1.1.67,3.29,3.29,0,0,1,.76,1.18,4.57,4.57,0,0,1,.28,1.71Z" transform="translate(-70.33 -262.73)"/><path class="cls-1" d="M365.94,376.38a3.67,3.67,0,0,1,0,.46c0,.15,0,.32-.05.48h-7.24a3,3,0,0,0,.36.75,2.65,2.65,0,0,0,.55.61,2.81,2.81,0,0,0,.74.41,3,3,0,0,0,.92.14,3.73,3.73,0,0,0,1.22-.21,3,3,0,0,0,1-.57l1.43,1.43a5.89,5.89,0,0,1-3.75,1.28,4.81,4.81,0,0,1-1.9-.38,5.08,5.08,0,0,1-1.54-1,4.91,4.91,0,0,1-1-1.51,4.86,4.86,0,0,1,0-3.72,4.94,4.94,0,0,1,1-1.51,5.3,5.3,0,0,1,1.54-1,4.89,4.89,0,0,1,1.88-.37,5,5,0,0,1,1.83.35,5.1,5.1,0,0,1,1.55,1,4.57,4.57,0,0,1,1.46,3.41Zm-2.37-.87a2.68,2.68,0,0,0-.95-1.39,2.51,2.51,0,0,0-3.06,0,2.73,2.73,0,0,0-.94,1.39Zm0-7.79-2.26,3h-1.66l1.41-3Z" transform="translate(-70.33 -262.73)"/><path class="cls-1" d="M373.84,372.81l-1.21,1.91a3.68,3.68,0,0,0-.73-.63,1.4,1.4,0,0,0-.8-.27,1.25,1.25,0,0,0-.48.1,1.48,1.48,0,0,0-.48.33,2,2,0,0,0-.39.62,2.63,2.63,0,0,0-.15.95v5.1h-2.26v-9.05h2.26v1a3.3,3.3,0,0,1,.9-.89,2,2,0,0,1,1.1-.31,2.4,2.4,0,0,1,1.17.32A4.45,4.45,0,0,1,373.84,372.81Z" transform="translate(-70.33 -262.73)"/><path class="cls-1" d="M377,370.29h-2.35v-2.35H377Zm0,10.63h-2.29v-9.06H377Z" transform="translate(-70.33 -262.73)"/><path class="cls-1" d="M387.39,384.85h-2.26v-4.38a2.65,2.65,0,0,1-1,.52,3.68,3.68,0,0,1-1.11.17,4.07,4.07,0,0,1-1.75-.38,4.41,4.41,0,0,1-1.38-1,5,5,0,0,1-.9-1.51,5.24,5.24,0,0,1-.32-1.82,4.9,4.9,0,0,1,1.35-3.39,4.55,4.55,0,0,1,1.39-1,3.68,3.68,0,0,1,1.61-.37,3.91,3.91,0,0,1,1.13.16,3,3,0,0,1,.94.43v-.37h2.26Zm-2.24-6.34v-4.33a2.44,2.44,0,0,0-.79-.4,2.76,2.76,0,0,0-.83-.15,2.63,2.63,0,0,0-1,.19,2.45,2.45,0,0,0-1.34,1.45,3.28,3.28,0,0,0-.2,1.16,3,3,0,0,0,.2,1.1,2.55,2.55,0,0,0,.51.88,2.17,2.17,0,0,0,.8.57,2.44,2.44,0,0,0,1,.21A2.51,2.51,0,0,0,385.15,378.51Z" transform="translate(-70.33 -262.73)"/><path class="cls-1" d="M397.3,380.92H395v-.69a2,2,0,0,1-.51.39,3.78,3.78,0,0,1-.61.28,3.73,3.73,0,0,1-1.29.24,3.89,3.89,0,0,1-1.32-.22,3,3,0,0,1-1.12-.67,3.2,3.2,0,0,1-.78-1.17,4.63,4.63,0,0,1-.29-1.71v-5.5h2.26v5.39a2.19,2.19,0,0,0,.15.85,1.78,1.78,0,0,0,.39.61,1.48,1.48,0,0,0,.56.37,2.19,2.19,0,0,0,.67.11,2.66,2.66,0,0,0,1.89-.75v-6.58h2.26Z" transform="translate(-70.33 -262.73)"/><path class="cls-1" d="M408.52,376.38c0,.15,0,.3,0,.46l-.06.48h-7.23a3,3,0,0,0,.35.75,2.69,2.69,0,0,0,.56.61,2.66,2.66,0,0,0,.74.41,3,3,0,0,0,.92.14A3.77,3.77,0,0,0,405,379a3.14,3.14,0,0,0,1-.57l1.42,1.43a6.16,6.16,0,0,1-1.84,1,6.24,6.24,0,0,1-1.9.29,4.77,4.77,0,0,1-1.9-.38,5,5,0,0,1-1.54-1,4.91,4.91,0,0,1-1-1.51,4.74,4.74,0,0,1,0-3.72,4.77,4.77,0,0,1,1-1.51,5.39,5.39,0,0,1,1.53-1,5,5,0,0,1,3.71,0,4.87,4.87,0,0,1,1.55,1,4.57,4.57,0,0,1,1.46,3.41Zm-2.36-.87a2.68,2.68,0,0,0-1-1.39,2.45,2.45,0,0,0-1.54-.52,2.41,2.41,0,0,0-1.52.52,2.73,2.73,0,0,0-.94,1.39Z" transform="translate(-70.33 -262.73)"/><path class="cls-1" d="M97.63,347.76a17.11,17.11,0,0,1-2.43.21,11.51,11.51,0,0,1-2.92-.36,5.86,5.86,0,0,1-2.44-1.31,6.58,6.58,0,0,1-1.72-2.62,11.73,11.73,0,0,1-.66-4.28V262.73H70.33v75.48a48.59,48.59,0,0,0,1.13,11.19,19.36,19.36,0,0,0,3.63,7.85,14.63,14.63,0,0,0,6.66,4.58A30.72,30.72,0,0,0,92,363.32a29.58,29.58,0,0,0,6.9-.83,19.88,19.88,0,0,0,6-2.46A28.86,28.86,0,0,1,97.63,347.76Z" transform="translate(-70.33 -262.73)"/></svg>