<svg xmlns="http://www.w3.org/2000/svg" width="166.505" height="192.263" viewBox="0 0 166.505 192.263"><g transform="translate(-867.716 -1478)"><path d="M255.244,223.675l-83.252,48.066L88.739,223.675V127.543l83.252-48.066,83.252,48.066Z" transform="translate(778.977 1398.522)" fill="#eff5fc"/><g transform="translate(911.052 1538.206)"><path d="M53.876,24.936H9.574A9.828,9.828,0,0,0,0,34.978V54.687a9.827,9.827,0,0,0,9.574,10.04h44.3a9.827,9.827,0,0,0,9.574-10.04V34.978A9.828,9.828,0,0,0,53.876,24.936Zm6.278,29.749a6.531,6.531,0,0,1-6.278,6.745H9.574A6.432,6.432,0,0,1,3.39,55.689c2.173-1.847,8.844-6.868,14.964-4.706,5.565,1.971,9.945-1.072,13.807-3.757,2.783-1.936,5.413-3.765,8.382-3.96,7.756-.51,19.425,0,19.542,0l.069-1.559S60.154,54.685,60.154,54.685Zm0-14.54c-.9-.037-12.047-.5-19.815,0-3.835.253-6.948,2.418-9.959,4.514-3.718,2.584-6.929,4.813-10.983,3.378-6.283-2.228-12.582,1.2-16.1,3.746V34.978a6.529,6.529,0,0,1,6.277-6.745h44.3a6.53,6.53,0,0,1,6.278,6.743ZM71.773,25.587V56.272a1.56,1.56,0,1,1-3.121,0V25.587a6.247,6.247,0,0,0-6.241-6.241H13.524a1.56,1.56,0,1,1,0-3.121H62.412A9.371,9.371,0,0,1,71.773,25.587Zm8.06-9.1V47.171a1.56,1.56,0,1,1-3.121,0V16.486a6.247,6.247,0,0,0-6.241-6.241H21.585a1.56,1.56,0,1,1,0-3.121H70.472A9.371,9.371,0,0,1,79.834,16.486ZM13.524,30.918a6.11,6.11,0,1,0,6.11,6.11A6.117,6.117,0,0,0,13.524,30.918Zm0,9.1a2.989,2.989,0,1,1,2.989-2.989A2.992,2.992,0,0,1,13.524,40.017Z" fill="#004080"/></g></g></svg>