<svg xmlns="http://www.w3.org/2000/svg" width="1865.966" height="3130.218" viewBox="0 0 1865.966 3130.218"><g transform="translate(-113.521 -2864.793)"><path d="M532.162,3450.757s-221.44,221.733-168.269,373.894,362.811,3.17,584.876,38.04,532.706,569.924,695.345,547.734,154.132-102.667,107.342-94.667-28.9,66.666,89.452,128,205.676-40.2,280.74,213.4,96.958,88.76,96.958,88.76" transform="translate(-240.606 1194.909)" fill="none" stroke="#e5902a" stroke-width="3"/><path d="M1360.443,1627.273s530.466,87.879,554.709,281.818S1536.364,2269.7,1536.364,2269.7L481.818,2327.273s-6.061,142.424,145.455,130.3S922,2404,1032,2440s307.394,244.848,307.394,244.848,281.818,327.272,172.727,439.394-472.727,33.333-427.273,157.576" transform="translate(-240.606 1239)" fill="none" stroke="#e5902a" stroke-width="3"/></g></svg>