<svg xmlns="http://www.w3.org/2000/svg" width="166.505" height="192.263" viewBox="0 0 166.505 192.263"><g transform="translate(-1384.911 -1478)"><path d="M255.244,223.675l-83.252,48.066L88.739,223.675V127.543l83.252-48.066,83.252,48.066Z" transform="translate(1296.172 1398.522)" fill="#eff5fc"/><g transform="translate(1430.626 1537.473)"><g transform="translate(0 0)"><path d="M36.42,82.887a2.827,2.827,0,0,0,.954.166,2.781,2.781,0,0,0,.948-.166A55.04,55.04,0,0,0,74.748,31.163V10.711a4.137,4.137,0,0,0-3.984-4.153C64.8,6.331,49.785,5.271,39.128.383a4.207,4.207,0,0,0-3.508,0C24.962,5.271,9.947,6.335,3.984,6.56A4.137,4.137,0,0,0,0,10.711V31.163A54.9,54.9,0,0,0,36.42,82.887ZM2.768,10.711A1.384,1.384,0,0,1,4.09,9.327C10.218,9.091,25.666,8,36.775,2.9a1.417,1.417,0,0,1,.6-.134,1.44,1.44,0,0,1,.6.138C49.082,8,64.53,9.1,70.656,9.331a1.384,1.384,0,0,1,1.323,1.384V31.163A52.252,52.252,0,0,1,37.358,80.285,52.134,52.134,0,0,1,2.768,31.163Z" transform="translate(0 0)" fill="#004080"/><path d="M34.776,75.772a2.843,2.843,0,0,0,2.126,0,49.731,49.731,0,0,0,30.773-46.25v-16.7a2.782,2.782,0,0,0-2.566-2.777c-6.4-.448-18.59-1.8-28.226-5.832a2.7,2.7,0,0,0-2.09,0C25.158,8.236,12.971,9.592,6.565,10.042A2.782,2.782,0,0,0,4,12.819v16.7a50.1,50.1,0,0,0,9.136,28.947,49.489,49.489,0,0,0,21.64,17.3ZM6.76,12.8c8.029-.565,19.6-2.076,29.054-6.038,9.5,3.969,21.064,5.475,29.092,6.053v16.7A46.974,46.974,0,0,1,35.851,73.211h-.025A46.707,46.707,0,0,1,15.4,56.878,47.341,47.341,0,0,1,6.768,29.522Z" transform="translate(1.537 1.536)" fill="#004080"/><path d="M27.919,31.555l-2.353,4.587-5.134.729A2.806,2.806,0,0,0,18.138,38.8a2.768,2.768,0,0,0,.734,2.871l3.724,3.566-.875,5.005a2.778,2.778,0,0,0,1.107,2.732,2.847,2.847,0,0,0,3,.238l4.677-2.364L35.1,53.212a2.839,2.839,0,0,0,3-.238,2.778,2.778,0,0,0,1.107-2.731l-.867-5.026,3.715-3.546A2.768,2.768,0,0,0,42.8,38.8a2.806,2.806,0,0,0-2.3-1.928l-5.187-.761-2.3-4.555a2.85,2.85,0,0,0-5.077,0ZM30.524,32.8l2.3,4.554a2.839,2.839,0,0,0,2.136,1.523l5.178.783-3.71,3.551a2.782,2.782,0,0,0-.831,2.5l.767,5.039-4.6-2.366a2.865,2.865,0,0,0-2.618,0L24.44,50.718l.876-5.005a2.782,2.782,0,0,0-.831-2.5l-3.67-3.6,5.135-.729a2.836,2.836,0,0,0,2.133-1.523l2.373-4.593c.051,0,.061.019.066.032Z" transform="translate(6.917 11.526)" fill="#004080"/><path d="M19.074,28.226V24.074A1.384,1.384,0,0,0,17.69,22.69H14.921a1.384,1.384,0,1,0,0,2.768h1.384v2.768a1.384,1.384,0,0,1-1.384,1.384H12.153a1.384,1.384,0,0,1-1.384-1.384V17.153a1.384,1.384,0,0,1,1.384-1.384h2.768a1.384,1.384,0,0,1,1.384,1.384,1.384,1.384,0,1,0,2.768,0A4.153,4.153,0,0,0,14.921,13H12.153A4.153,4.153,0,0,0,8,17.153V28.226a4.153,4.153,0,0,0,4.153,4.153h2.768A4.153,4.153,0,0,0,19.074,28.226Z" transform="translate(3.074 4.995)" fill="#004080"/><path d="M19.384,32.379h2.768a6.929,6.929,0,0,0,6.921-6.921V19.921A6.929,6.929,0,0,0,22.153,13H19.384A1.384,1.384,0,0,0,18,14.384V30.995A1.384,1.384,0,0,0,19.384,32.379Zm1.384-16.611h1.384a4.153,4.153,0,0,1,4.153,4.153v5.537a4.153,4.153,0,0,1-4.153,4.153H20.768Z" transform="translate(6.916 4.995)" fill="#004080"/><path d="M29.384,32.176a1.384,1.384,0,0,0,1.384-1.384V26.842h1.384a6.921,6.921,0,1,0,0-13.842H29.384A1.384,1.384,0,0,0,28,14.384V30.791A1.384,1.384,0,0,0,29.384,32.176Zm1.384-16.407h1.384a4.153,4.153,0,1,1,0,8.305H30.768Z" transform="translate(10.758 4.995)" fill="#004080"/><path d="M39.384,32.176a1.384,1.384,0,0,0,1.384-1.384V25.458h2.768a1.384,1.384,0,0,1,1.384,1.384v4.153a1.384,1.384,0,0,0,2.768,0V26.842a4.114,4.114,0,0,0-.857-2.492,5.512,5.512,0,0,0,2.241-4.43V18.537A5.537,5.537,0,0,0,43.537,13H39.384A1.384,1.384,0,0,0,38,14.384V30.791A1.384,1.384,0,0,0,39.384,32.176Zm1.384-16.407h2.768a2.768,2.768,0,0,1,2.768,2.768v1.384a2.768,2.768,0,0,1-2.768,2.768H40.768Z" transform="translate(14.601 4.995)" fill="#004080"/></g></g></g></svg>