<?xml version="1.0"?>
<svg xmlns="http://www.w3.org/2000/svg" xmlns:xlink="http://www.w3.org/1999/xlink" xmlns:svgjs="http://svgjs.com/svgjs" version="1.1" width="512" height="512" x="0" y="0" viewBox="0 0 512 512" style="enable-background:new 0 0 512 512" xml:space="preserve" class=""><g><path xmlns="http://www.w3.org/2000/svg" d="m504.5 369c4.142 0 7.5-3.358 7.5-7.5v-246c0-12.407-10.093-22.5-22.5-22.5h-7.5v-7.5c0-12.407-10.093-22.5-22.5-22.5h-188.5c-5.758 0-11.016 2.177-15 5.747-3.984-3.57-9.242-5.747-15-5.747h-68.5c-4.142 0-7.5 3.358-7.5 7.5s3.358 7.5 7.5 7.5h68.5c4.136 0 7.5 3.365 7.5 7.5v19.5h-3.5c-4.142 0-7.5 3.358-7.5 7.5s3.358 7.5 7.5 7.5h3.5v39h-4.5c-4.142 0-7.5 3.358-7.5 7.5s3.358 7.5 7.5 7.5h4.5v40h-4.5c-4.142 0-7.5 3.358-7.5 7.5s3.358 7.5 7.5 7.5h4.5v40h-4.5c-4.142 0-7.5 3.358-7.5 7.5s3.358 7.5 7.5 7.5h4.5v40h-4.5c-4.142 0-7.5 3.358-7.5 7.5s3.358 7.5 7.5 7.5h4.5v40h-4.5c-4.142 0-7.5 3.358-7.5 7.5s3.358 7.5 7.5 7.5h4.5v13.5 1.5 2.572c0 4.135-3.364 7.5-7.5 7.5h-188.5c-4.136 0-7.5-3.365-7.5-7.5v-326.072c0-4.135 3.364-7.5 7.5-7.5h22.5v60.5c0 4.965 2.808 9.325 7.328 11.38 1.687.767 3.46 1.143 5.213 1.143 2.944 0 5.834-1.059 8.178-3.104l14.281-12.464 14.281 12.463c3.741 3.265 8.872 4.016 13.392 1.962 4.52-2.055 7.328-6.415 7.328-11.38v-78c0-6.893-5.607-12.5-12.5-12.5h-45c-6.894 0-12.501 5.607-12.501 12.5v2.5h-22.5c-12.407 0-22.5 10.093-22.5 22.5v7.5h-7.5c-12.407 0-22.5 10.093-22.5 22.5v301c0 26.191 21.309 47.5 47.5 47.5h188.5c7.875 0 14.982-3.332 20-8.655 5.018 5.322 12.125 8.655 20 8.655h188.5c26.191 0 47.5-21.309 47.5-47.5v-20c0-4.142-3.358-7.5-7.5-7.5s-7.5 3.358-7.5 7.5v20c0 17.92-14.58 32.5-32.5 32.5h-188.5c-6.893 0-12.5-5.607-12.5-12.5v-3.718c2.347.833 4.871 1.29 7.5 1.29h188.5c12.407 0 22.5-10.093 22.5-22.5v-303.572h7.5c4.136 0 7.5 3.364 7.5 7.5v246c0 4.142 3.358 7.5 7.5 7.5zm-414.5-306h40v70l-11.781-10.282c-2.343-2.044-5.281-3.067-8.219-3.067s-5.876 1.022-8.219 3.067l-11.781 10.282zm146 386h-188.5c-17.92 0-32.5-14.58-32.5-32.5v-301c0-4.136 3.364-7.5 7.5-7.5h7.5v303.572c0 12.407 10.093 22.5 22.5 22.5h188.5c2.629 0 5.153-.458 7.5-1.29v3.718c0 6.893-5.607 12.5-12.5 12.5zm231-37.428c0 4.135-3.364 7.5-7.5 7.5h-188.5c-4.136 0-7.5-3.365-7.5-7.5v-2.572-1.5-13.5h3.5c4.142 0 7.5-3.358 7.5-7.5s-3.358-7.5-7.5-7.5h-3.5v-40h3.5c4.142 0 7.5-3.358 7.5-7.5s-3.358-7.5-7.5-7.5h-3.5v-40h3.5c4.142 0 7.5-3.358 7.5-7.5s-3.358-7.5-7.5-7.5h-3.5v-40h3.5c4.142 0 7.5-3.358 7.5-7.5s-3.358-7.5-7.5-7.5h-3.5v-40h3.5c4.142 0 7.5-3.358 7.5-7.5s-3.358-7.5-7.5-7.5h-3.5v-39h4.5c4.142 0 7.5-3.358 7.5-7.5s-3.358-7.5-7.5-7.5h-4.5v-19.5c0-4.135 3.364-7.5 7.5-7.5h188.5c4.136 0 7.5 3.365 7.5 7.5z" fill="#004080" data-original="#000000" style="" class=""/><path xmlns="http://www.w3.org/2000/svg" d="m321.745 229.789c-8.773 8.773-8.773 23.047 0 31.82 4.386 4.386 10.148 6.58 15.91 6.58s11.524-2.193 15.91-6.58l12.021-12.021c.637-.637 1.381-.732 1.768-.732s1.131.095 1.768.732l11.313 11.314c4.25 4.25 9.9 6.59 15.91 6.59s11.661-2.34 15.91-6.59c4.25-4.25 6.59-9.9 6.59-15.91s-2.34-11.66-6.59-15.91l-11.314-11.313c-.637-.637-.732-1.381-.732-1.768s.095-1.131.732-1.768l11.314-11.313c4.25-4.25 6.59-9.9 6.59-15.91s-2.34-11.661-6.59-15.91c-4.25-4.25-9.9-6.59-15.91-6.59s-11.66 2.34-15.91 6.59l-11.313 11.314c-.637.637-1.381.732-1.768.732s-1.131-.095-1.768-.732l-12.021-12.021c-8.772-8.773-23.047-8.772-31.82 0-8.773 8.773-8.773 23.047 0 31.82l12.021 12.021c.637.637.732 1.381.732 1.768s-.095 1.131-.732 1.768zm22.628-26.164-12.021-12.021c-2.924-2.924-2.924-7.683 0-10.607 1.462-1.462 3.383-2.193 5.304-2.193 1.92 0 3.841.731 5.303 2.193l12.021 12.021c6.823 6.823 17.926 6.823 24.749 0l11.313-11.314c2.926-2.924 7.683-2.923 10.607 0 2.924 2.924 2.924 7.683 0 10.607l-11.314 11.313c-6.823 6.823-6.823 17.926 0 24.749l11.314 11.313c2.924 2.924 2.924 7.683 0 10.607s-7.683 2.924-10.607 0l-11.313-11.314c-6.823-6.823-17.926-6.823-24.749 0l-12.021 12.021c-2.925 2.925-7.682 2.924-10.607 0-2.924-2.924-2.924-7.683 0-10.607l12.021-12.021c6.823-6.821 6.823-17.923 0-24.747z" fill="#004080" data-original="#000000" style="" class=""/><path xmlns="http://www.w3.org/2000/svg" d="m208.165 170.038c-8.772-8.772-23.047-8.772-31.819 0l-44.194 44.194-14.496-14.496c-4.25-4.25-9.9-6.59-15.91-6.59s-11.66 2.34-15.91 6.59c-8.773 8.772-8.773 23.047 0 31.819l30.405 30.406c4.386 4.387 10.148 6.58 15.91 6.58s11.524-2.193 15.91-6.58l60.104-60.104c8.772-8.772 8.772-23.046 0-31.819zm-10.607 21.213-60.104 60.104c-1.417 1.417-3.3 2.197-5.304 2.197-2.003 0-3.887-.78-5.303-2.197l-30.405-30.405c-1.417-1.417-2.197-3.3-2.197-5.303s.78-3.887 2.197-5.303 3.3-2.197 5.303-2.197 3.887.78 5.303 2.197l16.264 16.263c2.361 2.361 5.5 3.661 8.839 3.661s6.478-1.3 8.839-3.661l45.962-45.962c2.924-2.924 7.683-2.924 10.606 0 1.417 1.417 2.197 3.3 2.197 5.304 0 2.002-.78 3.886-2.197 5.302z" fill="#004080" data-original="#000000" style="" class=""/><path xmlns="http://www.w3.org/2000/svg" d="m204.5 301.5c0-4.142-3.358-7.5-7.5-7.5h-100c-4.142 0-7.5 3.358-7.5 7.5s3.358 7.5 7.5 7.5h100c4.142 0 7.5-3.358 7.5-7.5z" fill="#004080" data-original="#000000" style="" class=""/><path xmlns="http://www.w3.org/2000/svg" d="m117 324c-4.142 0-7.5 3.358-7.5 7.5s3.358 7.5 7.5 7.5h60c4.142 0 7.5-3.358 7.5-7.5s-3.358-7.5-7.5-7.5z" fill="#004080" data-original="#000000" style="" class=""/><path xmlns="http://www.w3.org/2000/svg" d="m417 294h-100c-4.142 0-7.5 3.358-7.5 7.5s3.358 7.5 7.5 7.5h100c4.142 0 7.5-3.358 7.5-7.5s-3.358-7.5-7.5-7.5z" fill="#004080" data-original="#000000" style="" class=""/><path xmlns="http://www.w3.org/2000/svg" d="m397 324h-60c-4.142 0-7.5 3.358-7.5 7.5s3.358 7.5 7.5 7.5h60c4.142 0 7.5-3.358 7.5-7.5s-3.358-7.5-7.5-7.5z" fill="#004080" data-original="#000000" style="" class=""/></g></svg>
