<svg xmlns="http://www.w3.org/2000/svg" width="126.831" height="146.452" viewBox="0 0 126.831 146.452"><g transform="translate(-441.366 -5517)"><path d="M215.571,189.317,152.155,225.93,88.739,189.317V116.091l63.416-36.613,63.416,36.613Z" transform="translate(352.627 5437.522)" fill="#eff5fc"/><g transform="translate(481.449 5556.39)"><path d="M106.982,28.655h-3.907V15.63a15.63,15.63,0,0,0-31.26,0V28.655H67.907A3.912,3.912,0,0,0,64,32.562v26.05a3.912,3.912,0,0,0,3.907,3.907h39.075a3.912,3.912,0,0,0,3.907-3.907V32.562A3.912,3.912,0,0,0,106.982,28.655ZM74.42,15.63a13.025,13.025,0,1,1,26.05,0V28.655h-2.6V15.63a10.42,10.42,0,0,0-20.84,0V28.655h-2.6V15.63Zm20.84,0V28.655H79.63V15.63a7.815,7.815,0,1,1,15.63,0Zm13.025,42.982a1.3,1.3,0,0,1-1.3,1.3H67.907a1.3,1.3,0,0,1-1.3-1.3V32.562a1.3,1.3,0,0,1,1.3-1.3h39.075a1.3,1.3,0,0,1,1.3,1.3Z" transform="translate(-64)" fill="#00336a"/><path d="M222.179,307.6a5.211,5.211,0,1,0-7.273,0l-1.547,7.747a1.3,1.3,0,0,0,1.277,1.558h7.815a.345.345,0,0,0,.052,0,1.3,1.3,0,0,0,1.3-1.3,1.281,1.281,0,0,0-.146-.6Zm-5.955,6.7,1.073-5.361c.029.008.057,0,.086.01a4.857,4.857,0,0,0,2.321,0c.026-.008.057,0,.086-.01l1.073,5.361Zm3.5-8.133a2.671,2.671,0,0,1-.289.138,2.614,2.614,0,0,1-.745.151,2.754,2.754,0,0,1-.294,0,2.613,2.613,0,0,1-.745-.151,2.256,2.256,0,0,1-.289-.138,2.6,2.6,0,1,1,2.363,0Z" transform="translate(-195.097 -262.197)" fill="#00336a"/></g></g></svg>