<svg xmlns="http://www.w3.org/2000/svg" width="126.831" height="146.452" viewBox="0 0 126.831 146.452"><g transform="translate(-443.635 -5871.138)"><path d="M215.571,189.317,152.155,225.93,88.739,189.317V116.091l63.416-36.613,63.416,36.613Z" transform="translate(354.896 5791.66)" fill="#eff5fc"/><g transform="translate(-43.282 -185.969)"><g transform="translate(534.404 6107.622)"><path d="M166.1,65a2.286,2.286,0,0,0-3.233,0L135.433,92.352l-9.9-10.749a2.286,2.286,0,1,0-3.364,3.1L133.68,97.2a2.284,2.284,0,0,0,1.633.737h.049a2.289,2.289,0,0,0,1.614-.667l29.114-29.038A2.286,2.286,0,0,0,166.1,65Z" transform="translate(-121.568 -64.327)" fill="#00336a"/></g><g transform="translate(520 6100)"><path d="M58.38,28.047a2.286,2.286,0,0,0-2.286,2.286,25.76,25.76,0,1,1-25.76-25.76,2.286,2.286,0,1,0,0-4.573A30.333,30.333,0,1,0,60.667,30.333,2.286,2.286,0,0,0,58.38,28.047Z" fill="#00336a"/></g></g></g></svg>